# xmcd
#
# Track frame offsets:
#	150
#	26713
#	47782
#	68313
#	91092
#	107938
#	133128
#	152875
#	172921
#	190739
#	219044
#	253684
#
# Disc length: 3760 seconds
#
# Revision: 0
# Processed by: cddbd v1.5.1PL2 Copyright (c) Steve Scherf et al.
# Submitted via: EasyCDDAExtractor 7.5.1.2
#
DISCID=990eae0c
DTITLE=Symphorce - Twice Second
DYEAR=2004
DGENRE=Metal
TTITLE0=Fallen
TTITLE1=Tears
TTITLE2=Whatever Hate Provides
TTITLE3=Cause Of Laughter
TTITLE4=In The Cold
TTITLE5=Take What's Mine
TTITLE6=Face Of Pain
TTITLE7=Searching
TTITLE8=Two Seconds To Live
TTITLE9=Cry On My Shoulder
TTITLE10=Under The Curse
TTITLE11=Making of 'Twice Second' (MPEG-Video)
EXTD=
EXTT0=
EXTT1=
EXTT2=
EXTT3=
EXTT4=
EXTT5=
EXTT6=
EXTT7=
EXTT8=
EXTT9=
EXTT10=
EXTT11=
PLAYORDER=
